<?xml version="1.0" encoding="utf-8"?>
<!-- Generator: Adobe Illustrator 23.0.4, SVG Export Plug-In . SVG Version: 6.00 Build 0)  -->
<svg version="1.1" id="Layer_1" xmlns="http://www.w3.org/2000/svg" xmlns:xlink="http://www.w3.org/1999/xlink" x="0px" y="0px"
	 viewBox="0 0 1126.8 300" style="enable-background:new 0 0 1126.8 300;" xml:space="preserve">
<style type="text/css">
	.st0{fill:#009FE3;}
	.st1{fill:#F7F8F9;}
	.st2{enable-background:new    ;}
</style>
<g id="Layer_3">
</g>
<g id="Layer_4">
	<circle class="st0" cx="122.5" cy="123" r="92.4"/>
</g>
<g>
	<g>
		<path class="st1" d="M122.5,291.3c0,0,114.3-45,114.3-168.6c0-63-51.3-114-114.3-114S8.2,59.7,8.2,123
			C8.2,246.6,122.5,291.3,122.5,291.3z M30.1,123c0-51,41.4-92.4,92.4-92.4S214.9,72,214.9,123s-41.4,92.4-92.4,92.4
			S30.1,174,30.1,123z"/>
		<path class="st1" d="M155.2,165.3c0,2.1,2.4,3.9,5.7,3.9h14.7c3,0,5.7-1.8,5.7-3.9v-7.2c3.3-0.3,6-3,6.3-6.3l1.2-34.5
			c0-7.5-5.7-13.5-13.2-13.8L163,78.3c-2.1-4.8-6.9-8.1-12-8.4l-1.5-5.1c-0.6-1.8-2.1-3.3-4.2-3.3H127c-1.8,0-3.6,1.2-4.2,3.3
			l-1.5,5.1H92.8c-5.7,0-10.8,3.3-12.9,8.4L67,104.1c-6,1.5-10.5,6.9-10.5,13.5l1.2,34.5c0.3,3.3,3,6,6.3,6.3v7.2
			c0,2.1,2.4,3.9,5.7,3.9h14.7c3,0,5.7-1.8,5.7-3.9v-6.9h65.1L155.2,165.3L155.2,165.3z M94.6,131.7H75.4c-6,0-11.7-4.8-12.6-11.1
			c-0.9-5.7,3-10.5,8.7-10.5c3.3,0,6.6,1.5,9.3,3.9c2.1,2.1,4.5,3.6,7.2,4.5l5.4,1.8c1.2,0.3,2.4,1.5,2.4,3l0.9,5.7
			C97.3,130.5,96.4,131.7,94.6,131.7z M74.8,101.1L85,80.7v-0.3c1.5-3.3,4.5-5.4,8.1-5.4h57c3.6,0,6.6,2.1,8.1,5.4v0.3l10.2,20.1
			c0,2.1-21,3.9-46.8,3.9S74.8,103.2,74.8,101.1z M150.7,131.7c-1.8,0-2.7-1.5-2.4-3l0.9-5.7c0.3-1.2,1.2-2.4,2.4-3l5.4-1.8
			c2.7-0.9,5.1-2.4,7.2-4.5c2.4-2.4,5.7-3.9,9.3-3.9c5.7,0,9.6,4.8,8.7,10.5c-0.9,6-6.6,11.1-12.6,11.1h-18.9L150.7,131.7
			L150.7,131.7z"/>
	</g>
	<g class="st2">
		<path class="st1" d="M318.1,190.4v-75.8h-28.3v-10.1h68.1v10.1h-28.4v75.8H318.1z"/>
		<path class="st1" d="M351.2,190.4l33-85.9h12.2l35.2,85.9h-12.9l-10-26h-35.9l-9.4,26H351.2z M376,155.2h29.1l-9-23.8
			c-2.7-7.2-4.8-13.2-6.1-17.8c-1.1,5.5-2.6,11-4.6,16.4L376,155.2z"/>
		<path class="st1" d="M432,190.4l33.2-44.8l-29.3-41.1h13.5l15.6,22c3.2,4.6,5.5,8.1,6.9,10.5c1.9-3.1,4.2-6.4,6.8-9.8l17.3-22.8
			h12.4L478.2,145l32.5,45.4h-14.1L475,159.8c-1.2-1.8-2.5-3.7-3.8-5.7c-1.9,3.1-3.3,5.3-4.1,6.4l-21.6,29.9H432z"/>
		<path class="st1" d="M522.7,190.4v-85.9H534v85.9H522.7z"/>
		<path class="st1" d="M554.1,190.4v-85.9h29.6c6.7,0,11.8,0.4,15.3,1.2c4.9,1.1,9.1,3.2,12.6,6.2c4.5,3.8,7.9,8.7,10.2,14.7
			c2.2,6,3.4,12.8,3.4,20.4c0,6.5-0.8,12.3-2.3,17.3s-3.5,9.2-5.9,12.5c-2.4,3.3-5,5.9-7.8,7.8c-2.8,1.9-6.2,3.3-10.3,4.3
			c-4,1-8.6,1.5-13.8,1.5H554.1z M565.4,180.3h18.3c5.7,0,10.1-0.5,13.3-1.6s5.8-2.5,7.7-4.5c2.7-2.7,4.8-6.3,6.3-10.9
			c1.5-4.5,2.3-10.1,2.3-16.6c0-9-1.5-15.9-4.4-20.7c-3-4.8-6.5-8.1-10.8-9.7c-3-1.2-7.9-1.8-14.7-1.8h-18V180.3z"/>
		<path class="st1" d="M641,190.4v-85.9h62.1v10.1h-50.7V141h47.5v10.1h-47.5v29.2h52.7v10.1H641z"/>
		<path class="st1" d="M720.3,190.4v-85.9h11.4v75.8H774v10.1H720.3z"/>
		<path class="st1" d="M788.1,190.4v-85.9H846v10.1h-46.6v26.6h40.3v10.1h-40.3v39H788.1z"/>
		<path class="st1" d="M882.7,190.4v-75.8h-28.3v-10.1h68.1v10.1H894v75.8H882.7z"/>
		<path class="st0" d="M929.8,148.1c0-10.2,1-18.3,3.1-24.5c2.1-6.2,5.2-11,9.3-14.3c4.1-3.4,9.3-5,15.6-5c4.6,0,8.7,0.9,12.1,2.8
			c3.5,1.9,6.3,4.5,8.6,8c2.3,3.5,4,7.8,5.3,12.8c1.3,5,1.9,11.8,1.9,20.3c0,10.1-1,18.2-3.1,24.4c-2.1,6.2-5.2,11-9.3,14.4
			c-4.1,3.4-9.3,5.1-15.6,5.1c-8.3,0-14.8-3-19.5-8.9C932.7,175.9,929.8,164.2,929.8,148.1z M940.7,148.1c0,14.1,1.6,23.5,5,28.2
			c3.3,4.7,7.4,7,12.2,7c4.8,0,8.9-2.3,12.2-7c3.3-4.7,5-14.1,5-28.1c0-14.1-1.7-23.5-5-28.2c-3.3-4.6-7.4-7-12.3-7
			c-4.8,0-8.7,2.1-11.6,6.2C942.5,124.3,940.7,134,940.7,148.1z"/>
		<path class="st0" d="M1036.3,190.4h-10.5v-67.2c-2.5,2.4-5.9,4.8-10,7.3c-4.1,2.4-7.8,4.2-11.1,5.4v-10.2
			c5.9-2.8,11.1-6.1,15.5-10.1c4.4-3.9,7.5-7.8,9.4-11.5h6.8V190.4z"/>
		<path class="st0" d="M1063.3,167.9l11.1-0.9c0.8,5.4,2.7,9.4,5.7,12.2c3,2.7,6.6,4.1,10.8,4.1c5.1,0,9.4-1.9,12.9-5.7
			c3.5-3.8,5.3-8.9,5.3-15.2c0-6-1.7-10.8-5.1-14.2c-3.4-3.5-7.8-5.2-13.3-5.2c-3.4,0-6.5,0.8-9.2,2.3c-2.7,1.5-4.9,3.5-6.4,6
			l-9.9-1.3l8.3-44.1h42.7v10.1h-34.3l-4.6,23.1c5.2-3.6,10.6-5.4,16.2-5.4c7.5,0,13.8,2.6,19,7.8c5.2,5.2,7.7,11.9,7.7,20
			c0,7.8-2.3,14.5-6.8,20.2c-5.5,7-13,10.4-22.6,10.4c-7.8,0-14.2-2.2-19.1-6.6C1066.8,181,1064,175.2,1063.3,167.9z"/>
	</g>
</g>
<text transform="matrix(1 0 0 1 35 -282)" style="font-family:'ArialMT'; font-size:12px;">Lorem ipsum</text>
</svg>
