<?xml version="1.0" encoding="utf-8"?>
<!-- Generator: Adobe Illustrator 23.0.1, SVG Export Plug-In . SVG Version: 6.00 Build 0)  -->
<svg version="1.1" id="Layer_1" xmlns="http://www.w3.org/2000/svg" xmlns:xlink="http://www.w3.org/1999/xlink" x="0px" y="0px"
	 viewBox="0 0 1126.8 300" style="enable-background:new 0 0 1126.8 300;" xml:space="preserve">
<style type="text/css">
	.st0{fill:#009FE3;}
	.st1{fill:#F7F8F9;}
	.st2{enable-background:new    ;}
	.st3{font-family:'Roboto-Bold';}
	.st4{font-size:120px;}
</style>
<g id="Layer_3">
</g>
<g id="Layer_4">
	<circle class="st0" cx="122.5" cy="123" r="92.4"/>
</g>
<g>
	<g>
		<path class="st1" d="M122.5,291.3c0,0,114.3-45,114.3-168.6c0-63-51.3-114-114.3-114S8.2,59.7,8.2,123
			C8.2,246.6,122.5,291.3,122.5,291.3z M30.1,123c0-51,41.4-92.4,92.4-92.4S214.9,72,214.9,123s-41.4,92.4-92.4,92.4
			S30.1,174,30.1,123z"/>
		<path class="st1" d="M155.2,165.3c0,2.1,2.4,3.9,5.7,3.9h14.7c3,0,5.7-1.8,5.7-3.9v-7.2c3.3-0.3,6-3,6.3-6.3l1.2-34.5
			c0-7.5-5.7-13.5-13.2-13.8L163,78.3c-2.1-4.8-6.9-8.1-12-8.4l-1.5-5.1c-0.6-1.8-2.1-3.3-4.2-3.3H127c-1.8,0-3.6,1.2-4.2,3.3
			l-1.5,5.1H92.8c-5.7,0-10.8,3.3-12.9,8.4L67,104.1c-6,1.5-10.5,6.9-10.5,13.5l1.2,34.5c0.3,3.3,3,6,6.3,6.3v7.2
			c0,2.1,2.4,3.9,5.7,3.9h14.7c3,0,5.7-1.8,5.7-3.9v-6.9h65.1L155.2,165.3L155.2,165.3z M94.6,131.7H75.4c-6,0-11.7-4.8-12.6-11.1
			c-0.9-5.7,3-10.5,8.7-10.5c3.3,0,6.6,1.5,9.3,3.9c2.1,2.1,4.5,3.6,7.2,4.5l5.4,1.8c1.2,0.3,2.4,1.5,2.4,3l0.9,5.7
			C97.3,130.5,96.4,131.7,94.6,131.7z M74.8,101.1L85,80.7v-0.3c1.5-3.3,4.5-5.4,8.1-5.4h57c3.6,0,6.6,2.1,8.1,5.4v0.3l10.2,20.1
			c0,2.1-21,3.9-46.8,3.9S74.8,103.2,74.8,101.1z M150.7,131.7c-1.8,0-2.7-1.5-2.4-3l0.9-5.7c0.3-1.2,1.2-2.4,2.4-3l5.4-1.8
			c2.7-0.9,5.1-2.4,7.2-4.5c2.4-2.4,5.7-3.9,9.3-3.9c5.7,0,9.6,4.8,8.7,10.5c-0.9,6-6.6,11.1-12.6,11.1h-18.9L150.7,131.7
			L150.7,131.7z"/>
	</g>
	<text transform="matrix(1 0 0 1 294.9916 190.4409)" class="st2"><tspan x="0" y="0" class="st1 st3 st4">TAXIDELFT</tspan><tspan x="605.2" y="0" class="st0 st3 st4">015</tspan></text>
</g>
<text transform="matrix(1 0 0 1 35 -282)" style="font-family:'MyriadPro-Regular'; font-size:12px;">Lorem ipsum</text>
</svg>
