<?xml version="1.0"?>
<svg xmlns="http://www.w3.org/2000/svg" height="512px" viewBox="-16 0 512 512.00031" width="512px"><g><path d="m40 262c0 5.523438 4.476562 10 10 10s10-4.476562 10-10v-54.171875c12.324219 16.566406 21.753906 27.898437 22.320312 28.578125 1.902344 2.277344 4.714844 3.59375 7.679688 3.59375s5.777344-1.316406 7.679688-3.59375c.625-.746094 13.9375-16.75 29.785156-38.785156l52.535156 37.523437v247.421875l-120-85.710937v-54.855469c0-5.523438-4.476562-10-10-10s-10 4.476562-10 10v60c0 3.230469 1.558594 6.261719 4.1875 8.136719l140 100c3.355469 2.398437 7.992188 2.527343 11.527344.066406.023437-.015625.046875-.027344.066406-.042969.011719-.007812.023438-.015625.03125-.023437l134.1875-95.847657 134.1875 95.847657c3.019531 2.160156 7.027344 2.484375 10.390625.753906 3.328125-1.710937 5.421875-5.144531 5.421875-8.890625v-272c0-3.230469-1.558594-6.261719-4.1875-8.136719l-140-100c-3.457031-2.460937-8.148438-2.46875-11.59375-.019531-.011719.007812-.019531.011719-.03125.019531l-134.1875 95.847657-51.085938-36.492188c27.269532-40.335938 41.085938-70.996094 41.085938-91.21875 0-49.625-40.375-90-90-90s-90 40.375-90 90c0 19.910156 13.460938 50.046875 40 89.59375zm280 134.855469-120 85.710937v-247.417968l120-85.714844zm20-247.421875 120 85.714844v247.421874l-120-85.714843zm-250-129.433594c38.597656 0 70 31.402344 70 70 0 31.695312-50.253906 99.09375-70 124.066406-19.808594-25.066406-70-92.183594-70-124.066406 0-38.597656 31.402344-70 70-70zm0 0" data-original="#000000" class="active-path" data-old_color="#ffffff" fill="#ffffff"/><path d="m90 130c22.054688 0 40-17.945312 40-40s-17.945312-40-40-40-40 17.945312-40 40 17.945312 40 40 40zm0-60c11.027344 0 20 8.972656 20 20s-8.972656 20-20 20-20-8.972656-20-20 8.972656-20 20-20zm0 0" data-original="#000000" class="active-path" data-old_color="#ffffff" fill="#ffffff"/><path d="m50 312c5.519531 0 10-4.480469 10-10s-4.480469-10-10-10-10 4.480469-10 10 4.480469 10 10 10zm0 0" data-original="#000000" class="active-path" data-old_color="#ffffff" fill="#ffffff"/></g> </svg>
